<svg xmlns="http://www.w3.org/2000/svg" xmlns:xlink="http://www.w3.org/1999/xlink" width="500" zoomAndPan="magnify" viewBox="0 0 375 374.999991" height="500" preserveAspectRatio="xMidYMid meet" version="1.0"><defs><g/><clipPath id="97ae09582b"><path d="M 8.710938 202.929688 L 61.488281 202.929688 L 61.488281 255.707031 L 8.710938 255.707031 Z M 8.710938 202.929688 " clip-rule="nonzero"/></clipPath><clipPath id="54e6ff2ad1"><path d="M 16.960938 202.929688 L 53.238281 202.929688 C 57.796875 202.929688 61.488281 206.621094 61.488281 211.179688 L 61.488281 247.457031 C 61.488281 252.015625 57.796875 255.707031 53.238281 255.707031 L 16.960938 255.707031 C 12.402344 255.707031 8.710938 252.015625 8.710938 247.457031 L 8.710938 211.179688 C 8.710938 206.621094 12.402344 202.929688 16.960938 202.929688 Z M 16.960938 202.929688 " clip-rule="nonzero"/></clipPath><clipPath id="bc1609eaf5"><path d="M 7.210938 11.109375 L 59.988281 11.109375 L 59.988281 63.890625 L 7.210938 63.890625 Z M 7.210938 11.109375 " clip-rule="nonzero"/></clipPath><clipPath id="2080a49ca5"><path d="M 15.460938 11.109375 L 51.738281 11.109375 C 56.296875 11.109375 59.988281 14.804688 59.988281 19.359375 L 59.988281 55.640625 C 59.988281 60.195312 56.296875 63.890625 51.738281 63.890625 L 15.460938 63.890625 C 10.902344 63.890625 7.210938 60.195312 7.210938 55.640625 L 7.210938 19.359375 C 7.210938 14.804688 10.902344 11.109375 15.460938 11.109375 Z M 15.460938 11.109375 " clip-rule="nonzero"/></clipPath><clipPath id="53ae6896a7"><path d="M 168.871094 11.109375 L 221.652344 11.109375 L 221.652344 63.890625 L 168.871094 63.890625 Z M 168.871094 11.109375 " clip-rule="nonzero"/></clipPath><clipPath id="6e820ce75c"><path d="M 177.121094 11.109375 L 213.402344 11.109375 C 217.957031 11.109375 221.652344 14.804688 221.652344 19.359375 L 221.652344 55.640625 C 221.652344 60.195312 217.957031 63.890625 213.402344 63.890625 L 177.121094 63.890625 C 172.566406 63.890625 168.871094 60.195312 168.871094 55.640625 L 168.871094 19.359375 C 168.871094 14.804688 172.566406 11.109375 177.121094 11.109375 Z M 177.121094 11.109375 " clip-rule="nonzero"/></clipPath><clipPath id="5e292815c2"><path d="M 307.785156 133.285156 L 367.296875 133.285156 L 367.296875 187.5 L 307.785156 187.5 Z M 307.785156 133.285156 " clip-rule="nonzero"/></clipPath><clipPath id="ad339422a0"><path d="M 337.5 133.285156 L 367.214844 187.5 L 307.785156 187.5 Z M 337.5 133.285156 " clip-rule="nonzero"/></clipPath><clipPath id="9365bdefc2"><path d="M 165.546875 311.335938 L 225 311.335938 L 225 365.550781 L 165.546875 365.550781 Z M 165.546875 311.335938 " clip-rule="nonzero"/></clipPath><clipPath id="1bbee44bbd"><path d="M 195.261719 311.335938 L 224.976562 365.550781 L 165.546875 365.550781 Z M 195.261719 311.335938 " clip-rule="nonzero"/></clipPath><clipPath id="1d56341bdc"><path d="M 307.785156 311.335938 L 367.296875 311.335938 L 367.296875 365.550781 L 307.785156 365.550781 Z M 307.785156 311.335938 " clip-rule="nonzero"/></clipPath><clipPath id="2339ca8dc9"><path d="M 337.5 311.335938 L 367.214844 365.550781 L 307.785156 365.550781 Z M 337.5 311.335938 " clip-rule="nonzero"/></clipPath></defs><g fill="#ffffff" fill-opacity="1"><g transform="translate(-20.209909, 290.565394)"><g><path d="M 72.0625 72.0625 L 32.578125 32.578125 L 273.96875 -208.8125 L 313.453125 -169.328125 Z M 380.59375 -230.21875 C 373.894531 -223.519531 366.457031 -219.800781 358.28125 -219.0625 C 350.101562 -218.320312 342.21875 -221.75 334.625 -229.34375 C 327.195312 -236.769531 323.851562 -244.570312 324.59375 -252.75 C 325.332031 -260.925781 329.046875 -268.359375 335.734375 -275.046875 C 342.429688 -281.742188 349.941406 -285.535156 358.265625 -286.421875 C 366.597656 -287.316406 374.476562 -284.046875 381.90625 -276.609375 C 389.34375 -269.179688 392.617188 -261.226562 391.734375 -252.75 C 390.847656 -244.269531 387.132812 -236.757812 380.59375 -230.21875 Z M 380.59375 -230.21875 "/></g></g></g><g clip-path="url(#97ae09582b)"><g clip-path="url(#54e6ff2ad1)"><path fill="#00bf63" d="M 8.710938 202.929688 L 61.488281 202.929688 L 61.488281 255.707031 L 8.710938 255.707031 Z M 8.710938 202.929688 " fill-opacity="1" fill-rule="nonzero"/></g></g><g clip-path="url(#bc1609eaf5)"><g clip-path="url(#2080a49ca5)"><path fill="#00bf63" d="M 7.210938 11.109375 L 59.988281 11.109375 L 59.988281 63.890625 L 7.210938 63.890625 Z M 7.210938 11.109375 " fill-opacity="1" fill-rule="nonzero"/></g></g><g clip-path="url(#53ae6896a7)"><g clip-path="url(#6e820ce75c)"><path fill="#00bf63" d="M 168.871094 11.109375 L 221.652344 11.109375 L 221.652344 63.890625 L 168.871094 63.890625 Z M 168.871094 11.109375 " fill-opacity="1" fill-rule="nonzero"/></g></g><g fill="#ff914d" fill-opacity="1"><g transform="translate(212.720952, 317.207439)"><g><path d="M 14.796875 0 L 14.796875 -76.5625 L 3.265625 -76.5625 L 3.265625 -95.328125 L 14.796875 -95.328125 L 14.796875 -103.859375 C 14.859375 -114.378906 17.632812 -122.5625 23.125 -128.40625 C 28.613281 -134.25 36.203125 -137.171875 45.890625 -137.171875 C 48.828125 -137.171875 52.585938 -136.582031 57.171875 -135.40625 L 57 -115.5 C 55.289062 -116.019531 53.265625 -116.28125 50.921875 -116.28125 C 43.515625 -116.28125 39.8125 -111.878906 39.8125 -103.078125 L 39.8125 -95.328125 L 54.703125 -95.328125 L 54.703125 -76.5625 L 39.8125 -76.5625 L 39.8125 0 Z M 14.796875 0 "/></g></g></g><g fill="#ff914d" fill-opacity="1"><g transform="translate(271.83378, 317.207439)"><g><path d="M 39.640625 -41.5 L 52.328125 -95.328125 L 78.9375 -95.328125 L 47.578125 14.265625 C 42.878906 30.421875 34.039062 38.5 21.0625 38.5 C 18.0625 38.5 14.648438 37.941406 10.828125 36.828125 L 10.828125 17.359375 L 13.75 17.4375 C 17.625 17.4375 20.539062 16.6875 22.5 15.1875 C 24.46875 13.695312 25.953125 11.101562 26.953125 7.40625 L 28.890625 0.96875 L 1.40625 -95.328125 L 28.1875 -95.328125 Z M 39.640625 -41.5 "/></g></g></g><g fill="#ff5757" fill-opacity="1"><g transform="translate(-1.217436, 197.243247)"><g><path d="M 44.03125 -127.96875 L 68.203125 -35.421875 L 92.28125 -127.96875 L 126.03125 -127.96875 L 126.03125 0 L 100.109375 0 L 100.109375 -34.625 L 102.484375 -87.984375 L 76.90625 0 L 59.328125 0 L 33.75 -87.984375 L 36.125 -34.625 L 36.125 0 L 10.28125 0 L 10.28125 -127.96875 Z M 44.03125 -127.96875 "/></g></g><g transform="translate(135.276696, 197.243247)"><g><path d="M 36.125 -21.453125 L 81.46875 -21.453125 L 81.46875 0 L 10.28125 0 L 10.28125 -127.96875 L 36.125 -127.96875 Z M 36.125 -21.453125 "/></g></g></g><g clip-path="url(#5e292815c2)"><g clip-path="url(#ad339422a0)"><path fill="#38b6ff" d="M 307.785156 133.285156 L 367.296875 133.285156 L 367.296875 187.5 L 307.785156 187.5 Z M 307.785156 133.285156 " fill-opacity="1" fill-rule="nonzero"/></g></g><g clip-path="url(#9365bdefc2)"><g clip-path="url(#1bbee44bbd)"><path fill="#38b6ff" d="M 165.546875 311.335938 L 225.058594 311.335938 L 225.058594 365.550781 L 165.546875 365.550781 Z M 165.546875 311.335938 " fill-opacity="1" fill-rule="nonzero"/></g></g><g clip-path="url(#1d56341bdc)"><g clip-path="url(#2339ca8dc9)"><path fill="#38b6ff" d="M 307.785156 311.335938 L 367.296875 311.335938 L 367.296875 365.550781 L 307.785156 365.550781 Z M 307.785156 311.335938 " fill-opacity="1" fill-rule="nonzero"/></g></g></svg>